<svg width="64" height="64" viewBox="0 0 64 64" fill="none"
  xmlns="http://www.w3.org/2000/svg">
  <path d="M40.0003 45.3332C47.3641 45.3332 53.3337 39.3636 53.3337 31.9998C53.3337 24.636 47.3641 18.6665 40.0003 18.6665C32.6365 18.6665 26.667 24.636 26.667 31.9998C26.667 39.3636 32.6365 45.3332 40.0003 45.3332Z" stroke="#d84b38" stroke-width="2" stroke-linecap="round" stroke-linejoin="round"/>
  <path d="M40.0005 40C44.4188 40 48.0005 36.4183 48.0005 32C48.0005 27.5817 44.4188 24 40.0005 24C35.5822 24 32.0005 27.5817 32.0005 32C32.0005 36.4183 35.5822 40 40.0005 40Z" stroke="#d84b38" stroke-width="2" stroke-linecap="round" stroke-linejoin="round"/>
  <path d="M40.0007 34.6668C41.4734 34.6668 42.6673 33.4729 42.6673 32.0002C42.6673 30.5274 41.4734 29.3335 40.0007 29.3335C38.5279 29.3335 37.334 30.5274 37.334 32.0002C37.334 33.4729 38.5279 34.6668 40.0007 34.6668Z" stroke="#d84b38" stroke-width="2" stroke-linecap="round" stroke-linejoin="round"/>
</svg>
