<svg width="74" height="70" viewBox="0 0 74 70" fill="none"
  xmlns="http://www.w3.org/2000/svg">
  <path d="M47.3339 47.5331C48.9541 47.2041 50.3943 46.2848 51.3748 44.9537C52.3554 43.6226 52.8063 41.9747 52.6402 40.3298C52.474 38.6849 51.7026 37.1604 50.4757 36.0522C49.2487 34.9441 47.6538 34.3314 46.0006 34.3331H44.3206C43.8788 32.6228 43.0193 31.0491 41.8191 29.7531C40.6189 28.4571 39.1157 27.4794 37.4443 26.9078C35.773 26.3363 33.9859 26.1887 32.2434 26.4784C30.501 26.7681 28.8577 27.486 27.4612 28.5676C26.0648 29.6492 24.9587 31.0607 24.2425 32.6754C23.5262 34.29 23.2221 36.0572 23.3576 37.8184C23.493 39.5796 24.0636 41.2796 25.0183 42.7657C25.973 44.2519 27.2818 45.4777 28.8272 46.3331" stroke="#d84b38" stroke-width="2" stroke-linecap="round" stroke-linejoin="round"/>
  <path d="M39.3338 39.6665L34.0005 47.6665H42.0005L36.6672 55.6665" stroke="#d84b38" stroke-width="2" stroke-linecap="round" stroke-linejoin="round"/>
</svg>
